<svg width="17" height="19" viewBox="0 0 17 19" fill="none" xmlns="http://www.w3.org/2000/svg">
<path d="M4.99611 10.7255C4.90759 10.8138 4.83733 10.9189 4.78938 11.0347C4.74143 11.1504 4.71675 11.2746 4.71675 11.4C4.71675 11.5254 4.74143 11.6496 4.78938 11.7653C4.83733 11.8811 4.90759 11.9862 4.99611 12.0745L7.82944 14.9245C7.91724 15.0135 8.0217 15.0842 8.13679 15.1324C8.25188 15.1807 8.37532 15.2055 8.5 15.2055C8.62468 15.2055 8.74812 15.1807 8.86321 15.1324C8.9783 15.0842 9.08276 15.0135 9.17056 14.9245L12.0039 12.0745C12.1817 11.8956 12.2816 11.653 12.2816 11.4C12.2816 11.147 12.1817 10.9044 12.0039 10.7255C11.826 10.5466 11.5848 10.4461 11.3333 10.4461C11.0818 10.4461 10.8406 10.5466 10.6628 10.7255L9.44444 11.9605V0.95C9.44444 0.698044 9.34494 0.456408 9.16782 0.278249C8.9907 0.100089 8.75048 0 8.5 0C8.24952 0 8.00929 0.100089 7.83218 0.278249C7.65506 0.456408 7.55556 0.698044 7.55556 0.95V11.9605L6.33722 10.7255C6.24942 10.6365 6.14497 10.5658 6.02988 10.5176C5.91479 10.4693 5.79134 10.4445 5.66667 10.4445C5.54199 10.4445 5.41854 10.4693 5.30345 10.5176C5.18837 10.5658 5.08391 10.6365 4.99611 10.7255ZM14.1667 6.65H12.2778C12.0273 6.65 11.7871 6.75009 11.61 6.92825C11.4328 7.10641 11.3333 7.34804 11.3333 7.6C11.3333 7.85196 11.4328 8.09359 11.61 8.27175C11.7871 8.44991 12.0273 8.55 12.2778 8.55H14.1667C14.4171 8.55 14.6574 8.65009 14.8345 8.82825C15.0116 9.00641 15.1111 9.24804 15.1111 9.5V16.15C15.1111 16.402 15.0116 16.6436 14.8345 16.8218C14.6574 16.9999 14.4171 17.1 14.1667 17.1H2.83333C2.58285 17.1 2.34263 16.9999 2.16551 16.8218C1.98839 16.6436 1.88889 16.402 1.88889 16.15V9.5C1.88889 9.24804 1.98839 9.00641 2.16551 8.82825C2.34263 8.65009 2.58285 8.55 2.83333 8.55H4.72222C4.9727 8.55 5.21293 8.44991 5.39005 8.27175C5.56716 8.09359 5.66667 7.85196 5.66667 7.6C5.66667 7.34804 5.56716 7.10641 5.39005 6.92825C5.21293 6.75009 4.9727 6.65 4.72222 6.65H2.83333C2.08189 6.65 1.36122 6.95027 0.829864 7.48475C0.298511 8.01922 0 8.74413 0 9.5V16.15C0 16.9059 0.298511 17.6308 0.829864 18.1653C1.36122 18.6997 2.08189 19 2.83333 19H14.1667C14.9181 19 15.6388 18.6997 16.1701 18.1653C16.7015 17.6308 17 16.9059 17 16.15V9.5C17 8.74413 16.7015 8.01922 16.1701 7.48475C15.6388 6.95027 14.9181 6.65 14.1667 6.65Z" fill="#1B1B1B"/>
</svg>
