<?xml version="1.0" standalone="no"?>
<!DOCTYPE svg PUBLIC "-//W3C//DTD SVG 20010904//EN"
 "http://www.w3.org/TR/2001/REC-SVG-20010904/DTD/svg10.dtd">
<svg version="1.0" xmlns="http://www.w3.org/2000/svg"
 width="636.000000pt" height="636.000000pt" viewBox="0 0 636.000000 636.000000"
 preserveAspectRatio="xMidYMid meet">
<metadata>
Created by potrace 1.14, written by Peter Selinger 2001-2017
</metadata>
<g transform="translate(0.000000,636.000000) scale(0.100000,-0.100000)"
fill="#000000" stroke="none">
<path d="M1500 4915 c-295 -44 -569 -159 -818 -343 -124 -91 -191 -154 -262
-248 -25 -32 -47 -61 -50 -64 -6 -6 -129 -194 -147 -224 -86 -148 -149 -320
-190 -516 -46 -223 -38 -541 18 -770 111 -452 352 -790 747 -1047 128 -84 314
-176 402 -198 3 -1 12 -5 20 -8 49 -20 177 -49 285 -65 65 -9 380 -9 470 0 60
6 153 22 258 43 137 28 328 116 506 235 164 110 274 201 416 344 141 143 165
170 339 386 40 50 194 262 261 360 136 197 206 281 380 455 293 295 502 429
810 521 44 14 94 27 110 30 17 3 49 9 72 14 23 6 63 12 90 15 26 3 60 8 74 10
31 6 122 15 204 21 33 2 241 4 463 4 l402 0 0 484 0 483 -267 -3 c-358 -3
-846 -14 -875 -19 -13 -2 -50 -6 -83 -10 -33 -3 -71 -8 -85 -10 -14 -2 -43 -7
-65 -10 -22 -3 -58 -10 -80 -16 -22 -6 -51 -13 -65 -16 -136 -23 -457 -141
-626 -229 -408 -212 -729 -476 -996 -820 -128 -164 -202 -259 -228 -294 -14
-19 -43 -56 -66 -84 -22 -28 -95 -123 -161 -212 -221 -294 -336 -420 -488
-534 -112 -84 -275 -159 -383 -176 -20 -3 -40 -8 -43 -10 -9 -5 -158 -5 -206
0 -23 3 -77 17 -120 31 -253 85 -457 312 -528 588 -32 125 -29 287 8 394 81
234 282 428 532 512 84 28 97 30 220 27 115 -3 141 -7 225 -35 91 -31 215 -91
256 -124 33 -27 100 -81 129 -104 l27 -21 70 81 c39 45 107 122 152 171 44 48
90 98 101 110 11 12 58 64 105 116 47 51 94 103 105 115 89 93 116 128 107
134 -5 3 -47 40 -92 81 -122 111 -230 184 -375 255 -119 58 -335 141 -335 129
0 -2 -8 0 -18 5 -11 6 -30 12 -43 15 -236 48 -212 45 -414 50 -107 3 -201 -1
-255 -9z"/>
<path d="M5607 3584 c-1 -1 -56 -4 -122 -8 -66 -3 -133 -8 -150 -11 -115 -19
-166 -29 -210 -40 -213 -56 -403 -146 -575 -274 -82 -61 -218 -193 -265 -256
-17 -22 -32 -42 -35 -45 -23 -22 -116 -172 -152 -245 -70 -139 -125 -320 -144
-470 -3 -22 -7 -51 -10 -65 -13 -76 -21 -422 -15 -635 l1 -40 482 0 482 0 1
245 c2 286 8 338 56 470 57 154 164 270 312 334 118 52 198 60 525 58 l262 -2
0 490 0 490 -97 1 c-54 0 -153 2 -221 2 -68 1 -124 1 -125 1z"/>
<path d="M1675 3489 c-66 -15 -124 -50 -175 -106 -196 -214 -19 -542 280 -521
122 9 232 85 281 194 54 121 12 288 -94 368 -78 60 -197 86 -292 65z"/>
</g>
</svg>
