<svg width="19" height="14" viewBox="0 0 19 14" fill="none" xmlns="http://www.w3.org/2000/svg">
<path d="M16.6052 0.0180412L9.19742 0.0360825L1.78969 0H1.78608C0.790206 0 0 0.934536 0 2.10361V11.8964C0 13.0655 0.790206 14 1.78608 14H16.616C17.6119 14 18.4021 13.0655 18.4021 11.8964V2.10361C18.4021 0.934536 17.6191 0.0180412 16.6052 0.0180412ZM16.0242 1.46134L9.4067 7.51237L9.38144 7.53402L9.35979 7.55928C9.28041 7.64588 9.1866 7.6567 9.13608 7.6567C9.08557 7.6567 8.99175 7.64227 8.91598 7.55206L8.89433 7.5268L2.56907 1.43247L9.19742 1.47577L16.0242 1.46134ZM16.616 12.5567H1.78608C1.65979 12.5567 1.4433 12.3186 1.4433 11.8964V2.33454L7.85155 8.52629C8.17629 8.88711 8.63454 9.09639 9.12165 9.10361H9.1433C9.6232 9.10361 10.0706 8.90515 10.399 8.55876L16.966 2.54742V11.8964C16.9588 12.3186 16.7423 12.5567 16.616 12.5567Z" fill="#EEEEEE"/>
</svg>
